Coordinates
version=1
nRows=23
nColumns=23
inDegrees=yes

Units are S.I. units (second, meters, Newtons, ...)
If the header above contains a line with 'inDegrees', this indicates whether rotational values are in degrees (yes) or radians (no).

endheader
time	pelvis_tilt	pelvis_list	pelvis_rotation	pelvis_tx	pelvis_ty	pelvis_tz	hip_flexion_r	hip_adduction_r	hip_rotation_r	knee_angle_r	knee_angle_r_beta	ankle_angle_r	subtalar_angle_r	mtp_angle_r	hip_flexion_l	hip_adduction_l	hip_rotation_l	knee_angle_l	knee_angle_l_beta	ankle_angle_l	subtalar_angle_l	mtp_angle_l
      0.00000000	     -7.33877288	     -0.82268218	      0.88829578	      2.14275354	      1.05251281	      1.03629273	     37.24243907	     -4.94449461	    -13.31242286	     57.58185072	      1.00499288	      4.15533072	      0.74611350	      0.00000000	     -8.11163885	     -0.70544793	     -6.55435021	     23.96555089	      0.41827777	     -1.00001208	      2.34922197	      0.00000000
      0.00666667	     -8.06193294	     -0.78407006	      0.25793385	      2.14412826	      1.05565679	      1.03690656	     38.04705295	     -4.51955417	    -13.66956568	     54.00854632	      0.94262696	      4.04803590	      1.50232676	      0.00000000	     -8.49503589	     -0.61541988	     -7.01722097	     23.44113314	      0.40912495	     -4.64894080	      1.33635650	      0.00000000
      0.01333333	     -8.93899072	     -0.80014639	     -0.31610782	      2.14545040	      1.05831405	      1.03754227	     38.83984385	     -3.98759390	    -14.12459647	     50.20994847	      0.87632892	      3.98227637	      2.50931261	      0.00000000	     -8.57051870	     -0.71604016	     -7.88749245	     23.24123834	      0.40563613	     -8.01164752	      0.95164448	      0.00000000
      0.02000000	     -9.54205922	     -0.87496649	     -0.86678811	      2.14691111	      1.06108915	      1.03823379	     39.14008765	     -3.29547114	    -14.56436989	     46.16200575	      0.80567899	      3.91005080	      3.53694014	      0.00000000	     -8.99392905	     -0.78936290	     -8.40944541	     22.94560118	      0.40047629	    -11.26933762	     -0.09672828	      0.00000000
      0.02666667	    -10.10477147	     -0.89744968	     -1.32514643	      2.14833337	      1.06355693	      1.03889179	     39.28242606	     -2.62589261	    -14.98859598	     42.03433289	      0.73363751	      3.82918073	      4.66767631	      0.00000000	     -9.39129331	     -0.77134889	     -8.62901409	     22.77973812	      0.39758143	    -14.42484619	     -1.69885836	      0.00000000
      0.03333333	    -10.87546122	     -0.92720078	     -1.76799278	      2.14960664	      1.06514313	      1.03968507	     39.60944274	     -1.86821535	    -15.29985517	     37.95692721	      0.66247335	      3.85000688	      5.95842278	      0.00000000	     -9.28283709	     -0.98948505	     -9.57091152	     23.28798088	      0.40645194	    -16.77923307	     -2.34240529	      0.00000000
      0.04000000	    -11.31758044	     -1.09294233	     -2.09957584	      2.15086811	      1.06672175	      1.04046356	     39.44754439	     -0.95592732	    -15.54538826	     33.78842260	      0.58971922	      3.71189211	      6.98511960	      0.00000000	     -9.39773622	     -1.39102664	    -10.43956669	     24.10810545	      0.42076582	    -18.68193462	     -3.30159382	      0.00000000
      0.04666667	    -11.90024092	     -1.13589477	     -2.45340229	      2.15202445	      1.06746460	      1.04137838	     39.48565539	     -0.10984875	    -15.53051927	     29.88861297	      0.52165471	      3.75075581	      8.15375087	      0.00000000	     -9.21136543	     -1.74211711	    -11.44957976	     25.31203006	      0.44177826	    -20.04001951	     -4.20460486	      0.00000000
      0.05333333	    -12.28255839	     -1.32838481	     -2.75859631	      2.15311969	      1.06800358	      1.04239721	     39.18479653	      1.03107812	    -14.89424127	     25.90266955	      0.45208687	      3.54228341	      8.27924009	      0.00000000	     -9.10127696	     -2.35114905	    -12.59316826	     26.89897353	      0.46947565	    -20.68887651	     -4.67968843	      0.00000000
      0.06000000	    -12.62689960	     -1.44791454	     -2.92004868	      2.15420390	      1.06800416	      1.04321518	     38.90334331	      1.86175113	    -14.47999406	     22.38584851	      0.39070676	      3.51974075	      9.00510480	      0.00000000	     -8.93514218	     -2.89159326	    -13.40116005	     28.68655891	      0.50067490	    -20.96763901	     -5.50221542	      0.00000000
      0.06666667	    -12.96040934	     -1.36278305	     -3.18633500	      2.15523453	      1.06747267	      1.04414094	     38.72192982	      2.49753849	    -13.76517981	     19.38350075	      0.33830591	      3.95007522	      9.97009185	      0.00000000	     -8.72652659	     -3.15048622	    -14.00698738	     30.59108008	      0.53391507	    -20.79825071	     -6.43852777	      0.00000000
      0.07333333	    -12.90430327	     -1.67509488	     -3.30596481	      2.15612534	      1.06711296	      1.04493277	     37.71178410	      3.69010959	    -11.66226720	     15.77753920	      0.27537001	      3.13074194	      7.84249076	      0.00000000	     -8.76073718	     -4.01295965	    -14.84019882	     32.92876127	      0.57471530	    -20.30021010	     -6.66387742	      0.00000000
      0.08000000	    -12.86172486	     -1.69844790	     -3.39106836	      2.15699486	      1.06609747	      1.04561546	     37.18783956	      4.09537327	    -11.11789421	     13.62411462	      0.23778566	      3.30660834	      8.46502648	      0.00000000	     -8.71945585	     -4.42040181	    -15.05537137	     35.24638096	      0.61516540	    -19.77384917	     -7.61277436	      0.00000000
      0.08666667	    -12.58565329	     -1.82456253	     -3.48583222	      2.15788292	      1.06506333	      1.04621774	     36.19425317	      4.70143863	     -9.60314574	     11.35020201	      0.19809840	      2.94515457	      7.22657355	      0.00000000	     -8.86845690	     -4.95120555	    -15.30747398	     37.66151776	      0.65731749	    -19.12255637	     -8.21525872	      0.00000000
      0.09333333	    -12.27070446	     -1.86991201	     -3.53919875	      2.15853127	      1.06357109	      1.04670835	     35.50076020	      4.96250757	     -9.00312273	     10.15255743	      0.17719555	      2.90652948	      6.97946183	      0.00000000	     -8.91427327	     -5.34734356	    -15.25277706	     40.22092002	      0.70198748	    -18.57887700	     -9.13708484	      0.00000000
      0.10000000	    -11.87083002	     -1.90342355	     -3.58704165	      2.15898493	      1.06172882	      1.04714456	     34.96498375	      5.07223042	     -8.93730227	      9.81797036	      0.17135591	      3.04963765	      7.05038023	      0.00000000	     -8.92765848	     -5.70906491	    -15.07010519	     42.89651293	      0.74868539	    -18.14511380	    -10.13121422	      0.00000000
      0.10666667	    -11.32927354	     -2.00685955	     -3.64188854	      2.15927191	      1.05965309	      1.04752965	     34.37941098	      5.19363377	     -9.03003318	     10.02750263	      0.17501294	      2.99066714	      6.78725500	      0.00000000	     -8.98263853	     -6.13465723	    -14.84804970	     45.68281946	      0.79731561	    -17.80025575	    -11.10529372	      0.00000000
      0.11333333	    -10.71505114	     -2.13967018	     -3.67129551	      2.15939030	      1.05728783	      1.04779138	     33.83814098	      5.26087016	     -9.31507156	     10.81389478	      0.18873807	      2.79663647	      6.26035849	      0.00000000	     -8.99626630	     -6.59659351	    -14.58334346	     48.55669101	      0.84747413	    -17.57727143	    -12.04879196	      0.00000000
      0.12000000	    -10.02760742	     -2.30437653	     -3.74099531	      2.15927961	      1.05457258	      1.04798285	     33.39078504	      5.30313653	     -9.74372546	     12.25948632	      0.21396840	      2.50943242	      5.53412302	      0.00000000	     -8.99220141	     -7.07258374	    -14.32399861	     51.48956041	      0.89866236	    -17.38129464	    -13.01263472	      0.00000000
      0.12666667	     -9.50716421	     -2.30817058	     -3.82149133	      2.15882770	      1.05108630	      1.04806146	     33.53655611	      4.96292867	    -10.96125122	     14.85810557	      0.25932286	      2.63258878	      5.72999643	      0.00000000	     -8.64479068	     -7.33485282	    -13.91900406	     54.52689320	      0.95167382	    -17.20711547	    -14.01278825	      0.00000000
      0.13333333	     -8.86033213	     -2.37271346	     -3.96919614	      2.15823657	      1.04739537	      1.04803112	     33.47822900	      4.76367282	    -11.46276150	     17.57227880	      0.30669412	      2.42592118	      4.66583206	      0.00000000	     -8.36943458	     -7.63012646	    -13.60054795	     57.56426010	      1.00468587	    -16.96100720	    -14.92521535	      0.00000000
      0.14000000	     -8.19381883	     -2.40854577	     -4.14094201	      2.15742675	      1.04331740	      1.04784512	     33.51349848	      4.45003135	    -12.00247898	     20.76693353	      0.36245137	      2.43580380	      3.69948347	      0.00000000	     -8.01829092	     -7.87206430	    -13.28781365	     60.60438583	      1.05774607	    -16.67688248	    -15.78166728	      0.00000000
      0.14666667	     -7.50427441	     -2.46872502	     -4.33875602	      2.15644777	      1.03897643	      1.04751468	     33.53338704	      4.16788216	    -12.27940502	     24.19300752	      0.42224764	      2.70771371	      2.47397011	      0.00000000	     -7.60561919	     -8.09804529	    -12.96938190	     63.63921265	      1.11071379	    -16.26955185	    -16.47986514	      0.00000000
